# xmcd
#
# Track frame offsets:
#	150
#	26873
#	49756
#	70449
#	93872
#	120745
#	139968
#	154841
#	169151
#	194891
#	215606
#	234154
#
# Disc length: 3306 seconds
#
# Revision: 1
# Processed by: cddbd v1.5.2PL0 Copyright (c) Steve Scherf et al.
# Submitted via: audiograbber 1.83.01
#
DISCID=b30ce80c
DTITLE=Rudy Rotta - Me, My Music And My Life [CD 2)
DYEAR=2011
DGENRE=Blues
TTITLE0=Hold On (Live)
TTITLE1=I'm In The Groove
TTITLE2=Vu Cumpra'
TTITLE3=Mama Save The Children
TTITLE4=Truth
TTITLE5=Come Together
TTITLE6=Lookin' Good
TTITLE7=I Been Up I Been Low
TTITLE8=St. James Infimany
TTITLE9=No One Cares
TTITLE10=It's All Over Now Baby Blue
TTITLE11=Song For Uwe 2
EXTD=
EXTT0=
EXTT1=
EXTT2=
EXTT3=
EXTT4=
EXTT5=
EXTT6=
EXTT7=
EXTT8=
EXTT9=
EXTT10=
EXTT11=
PLAYORDER=
